<?xml version="1.0" encoding="UTF-8"?>
<svg id="_레이어_2" data-name="레이어 2" xmlns="http://www.w3.org/2000/svg" viewBox="0 0 510.73 99.59">
  <defs>
    <style>
      .cls-1 {
        fill: #eb5c37;
      }
    </style>
  </defs>
  <g id="guide">
    <path class="cls-1" d="M58.88,64.35h38.68v12.58h-44.96v-34.13l-31.15-19.49h37.43v41.05ZM97.56,42.79l31.15-19.49h-31.15v19.49ZM179.23,40.76h9.76v16.65h9.13V21.45h-9.13v12.22h-9.76v-9.61h-29.07v26.38h29.07v-9.68ZM170.3,42.87h-11.21v-11.24h11.21v11.24ZM182.35,56.39v-2.31h-9.24v2.31c0,1.18-.28,2.15-3.27,4.31l-14.45,10.49,5,6.95,14.45-10.49c1.11-.83,2.08-1.67,2.92-2.5.83.83,1.81,1.67,2.92,2.5l14.45,10.49,5-6.95-14.45-10.49c-2.99-2.15-3.34-3.13-3.34-4.31ZM225.4,38.1v-14.04h-8.87v14.04c0,2.8-.41,4.16-3.07,7.92l-11.88,16.62,6.82,4.91,11.88-16.62c.27-.34.48-.68.68-.96.2.27.41.61.68.96l11.88,16.62,6.82-4.91-11.88-16.62c-2.66-3.75-3.07-5.12-3.07-7.92ZM251.77,21.45h-9.13v56.69h9.13v-27.63h8.29v-7.73h-8.29v-21.34ZM422.35,34h-4.3v-11.92h-8.48v31.85h8.48v-12.21h4.3v12.82h8.67V21.45h-8.67v12.55ZM389.67,78.14h41.35v-21.14h-41.35v21.14ZM398.62,64.03h23.34v7.09h-23.34v-7.09ZM404.22,42.39c1.65-3.55,2.08-7.49,2.08-7.49.17-1.31.28-4.79.28-5.98v-5.84h-23.92v7.68h15.81c-.03,1.11-.18,3.2-.39,4.36h-15.42v7.29h11.99c-3.35,3.59-8.42,5.09-12.9,6.16l1.97,7.95c10.41-2.46,17.25-6.98,20.5-14.12ZM448.41,49.69h-6.85v7.31h41.43v-7.31h-6.91v-17.81h6.98v-7.37h-41.56v7.37h6.91v17.81ZM457.53,31.88h9.49v17.81h-9.49v-17.81ZM435.46,64.03v7.61h53.62v-7.61h-53.62ZM372.6,49.69h-30.03v-5.27h30.03v-7.11h-30.03v-5.42h30.03v-7.37h-39.22v32.49h39.22v-7.31ZM326.18,71.64h53.62v-7.61h-53.62v7.61ZM271.4,61.7h21.93v16.44h9.37v-16.44h21.93v-7.61h-53.23v7.61ZM317.08,23.08h-8.93v6.29h-20.19v-6.29h-9v26.12h38.12v-26.12ZM308.15,41.89h-20.19v-5.34h20.19v5.34Z"/>
  </g>
</svg>