<?xml version="1.0" encoding="UTF-8"?><svg id="Layer_2" xmlns="http://www.w3.org/2000/svg" viewBox="0 0 564.61 99.59"><defs><style>.cls-1{fill:#ff6000;stroke-width:0px;}</style></defs><g id="guide"><path class="cls-1" d="M58.88,64.35h38.68v12.58h-44.96v-34.13l-31.15-19.49h37.43v41.05ZM97.56,23.3h31.15l-31.15,19.49v-19.49ZM233.89,53.34c-11.71,0-19.9,5.1-19.92,12.4.02,7.3,8.21,12.4,19.92,12.4s19.9-5.1,19.92-12.4c-.02-7.3-8.21-12.4-19.92-12.4ZM233.89,71.31c-5.28,0-10.93-1.43-10.96-5.44.03-4.02,5.68-5.45,10.96-5.45s10.93,1.43,10.96,5.44c-.03,4.02-5.68,5.45-10.96,5.45ZM246.89,21.45h8.54v31.89h-8.54v-12.2h-3.61v9.31h-8.35v-28.36h8.35v11.97h3.61v-12.61ZM218.07,43.41l-8.07,8.07-6-6,9.07-9.07c1.71-1.85,1.68-3.18,1.68-4.8h-9.21v-7.54h27.08v7.54h-9.21c0,1.62-.03,2.95,1.68,4.8l9.07,9.07-6,6-8.07-8.07c-.35-.35-.74-.83-1.01-1.17-.27.35-.66.82-1.01,1.17ZM179.23,40.76h9.76v16.65h9.13V21.45h-9.13v12.22h-9.76v-9.61h-29.07v26.38h29.07v-9.68ZM170.3,42.87h-11.21v-11.24h11.21v11.24ZM185.68,60.7l14.45,10.49-5,6.95-14.45-10.49c-1.11-.83-2.09-1.67-2.92-2.5-.83.83-1.81,1.67-2.92,2.5l-14.45,10.49-5-6.95,14.45-10.49c2.99-2.15,3.27-3.13,3.27-4.31v-2.31h9.24v2.31c0,1.18.35,2.15,3.34,4.31ZM366.09,42.79h8.29v7.73h-8.29v27.63h-9.13V21.45h9.13v21.34ZM525.19,52.74h-30.86v-18.43h19.37v-3.84h-19.37v-7.54h28.59v18.15h-19.37v4.12h21.64v7.54ZM476.63,21.45h9.13v56.69h-9.13v-28.89h-9.83v-7.73h9.83v-20.07ZM543.16,21.45v32.96h-9.14v-14.69h-8.65v-7.73h8.65v-10.54h9.14ZM459.59,46.02l11.88,16.62-6.82,4.91-11.88-16.62c-.27-.34-.48-.68-.68-.96-.2.27-.41.61-.68.96l-11.88,16.62-6.82-4.91,11.88-16.62c2.66-3.75,3.07-5.12,3.07-7.92v-1.72h-11.86v-7.54h11.82v-7.39h8.94v7.39h11.82v7.54h-11.86v1.72c0,2.8.41,4.16,3.07,7.92ZM278.7,23.3c-10.57.04-16.39,8.98-16.39,22.73s5.82,22.69,16.39,22.73c10.57-.04,16.39-8.98,16.39-22.73s-5.82-22.69-16.39-22.73ZM278.7,61.42c-5.9-.05-7.13-9.01-7.13-15.4s1.24-15.35,7.13-15.4c5.9.05,7.13,9.01,7.13,15.4s-1.24,15.35-7.13,15.4ZM501.81,78.14h41.35v-21.14h-41.35v21.14ZM510.75,64.03h23.34v7.09h-23.34v-7.09ZM433.17,50.52h-8.23v27.63h-9.13V21.45h9.13v21.34h8.23v7.73ZM342.79,46.02l11.88,16.62-6.82,4.91-11.88-16.62c-.27-.34-.48-.68-.68-.96-.2.27-.41.61-.68.96l-11.88,16.62-6.82-4.91,11.88-16.62c2.66-3.75,3.07-5.12,3.07-7.92v-14.04h8.87v14.04c0,2.8.41,4.16,3.07,7.92ZM301.53,21.45h9.13v56.69h-9.13V21.45ZM401.41,46.02l11.88,16.62-6.82,4.91-11.88-16.62c-.27-.34-.48-.68-.68-.96-.2.27-.41.61-.68.96l-11.88,16.62-6.82-4.91,11.88-16.62c2.66-3.75,3.07-5.12,3.07-7.92v-5.49h-11.46v-7.54h31.79v7.54h-11.46v5.49c0,2.8.41,4.16,3.07,7.92Z"/></g></svg>