<svg width="24" height="12" viewBox="0 0 24 12" fill="none" xmlns="http://www.w3.org/2000/svg">
<path d="M22.3699 5.74292C23.0641 6.43719 23.0641 7.56281 22.3699 8.25708L20.3087 10.3182C20.0382 10.5888 19.6249 10.6558 19.2827 10.4847L15.5169 8.60185C15.1213 8.40402 14.9313 7.94537 15.0712 7.52571L15.7806 5.39754C13.5512 4.55374 11.0753 4.55374 8.84591 5.39754L9.5553 7.52571C9.69518 7.94537 9.5052 8.40402 9.10955 8.60185L5.34381 10.4847C5.0016 10.6558 4.58829 10.5888 4.31775 10.3182L2.25662 8.25708C1.56235 7.56281 1.56235 6.43719 2.25662 5.74292L2.88515 5.11438C8.09214 -0.0926086 16.5343 -0.0926086 21.7413 5.11438L22.3699 5.74292Z" stroke="white" stroke-width="1.58" stroke-linecap="round" stroke-linejoin="round"/>
</svg>
